{"glyphs":{":":{"x_min":0,"x_max":318,"ha":318,"o":"m 112 121 q 138 121 156 103 q 175 84 175 58 q 175 31 157 13 q 139 -5 111 -5 q 86 -5 67 14 q 49 33 49 59 q 49 83 68 102 q 87 121 112 121 z m 168 438 q 195 438 213 420 q 231 401 231 374 q 231 350 212 331 q 193 312 168 312 q 143 312 124 331 q 105 350 105 375 q 105 402 123 420 q 141 438 168 438 z"},"$":{"x_min":0,"x_max":581,"ha":581,"o":"m 299 291 l 254 30 l 256 30 q 320 30 359 69 q 399 109 399 172 q 399 211 374 240 q 350 270 299 291 z m 281 418 l 325 671 l 323 671 q 259 671 222 636 q 184 601 184 543 q 184 496 207 467 q 229 438 281 418 z m 384 785 l 369 703 q 442 693 485 653 q 528 613 528 556 q 528 524 514 502 q 500 481 479 481 q 460 481 449 494 q 438 507 438 529 q 438 545 444 563 q 451 582 465 606 q 451 633 425 649 q 400 666 364 670 l 318 403 q 409 372 455 323 q 501 274 501 209 q 501 115 433 53 q 364 -8 257 -8 l 248 -8 l 231 -106 l 192 -106 l 209 -5 q 132 6 86 47 q 41 88 41 147 q 41 184 59 210 q 77 236 101 236 q 119 236 129 224 q 140 212 140 192 q 140 169 130 149 q 121 129 100 109 q 108 78 140 57 q 172 35 216 31 l 262 302 q 173 335 130 382 q 88 430 88 496 q 88 587 154 647 q 221 706 326 706 l 331 706 l 345 785 z"},"?":{"x_min":0,"x_max":486,"ha":486,"o":"m 197 121 q 223 121 241 102 q 260 83 260 58 q 260 31 242 13 q 225 -5 197 -5 q 172 -5 153 14 q 134 32 134 58 q 134 83 153 102 q 171 121 197 121 z m 194 186 q 200 234 213 272 q 226 311 254 356 q 257 360 263 369 q 330 472 330 551 q 330 613 304 647 q 277 680 228 680 q 188 680 159 655 q 131 630 127 590 q 147 582 160 564 q 172 546 172 526 q 172 506 163 494 q 154 483 138 483 q 114 483 98 508 q 81 533 81 569 q 81 632 133 677 q 185 723 258 723 q 331 723 379 674 q 427 624 427 549 q 427 458 324 341 q 314 330 309 324 q 271 280 254 248 q 236 216 229 180 z"},"<":{"x_min":0,"x_max":833,"ha":833,"o":"m 704 484 l 248 298 l 704 112 l 704 23 l 129 259 l 129 337 l 704 574 z"},"'":{"x_min":0,"x_max":175,"ha":175,"o":"m 78 418 l 42 642 q 42 646 41 650 q 41 654 41 661 q 41 687 53 700 q 65 714 87 714 q 110 714 122 700 q 134 687 134 661 q 134 653 134 649 q 133 645 133 642 l 97 418 z"},"=":{"x_min":0,"x_max":833,"ha":833,"o":"m 709 238 l 709 157 l 124 157 l 124 238 z m 709 440 l 709 358 l 124 358 l 124 440 z"},"a":{"x_min":0,"x_max":578,"ha":578,"o":"m 330 221 l 365 372 q 361 412 343 434 q 325 456 296 456 q 266 456 236 430 q 207 404 183 355 q 156 300 141 240 q 125 181 125 136 q 125 93 138 71 q 152 50 179 50 q 194 50 214 63 q 234 76 258 103 q 285 133 305 167 q 325 202 330 221 z m 398 490 l 498 490 l 414 139 q 409 119 406 104 q 404 89 404 82 q 404 67 412 59 q 421 50 434 50 q 454 50 474 71 q 494 93 513 135 l 540 123 q 513 60 473 25 q 432 -9 385 -9 q 345 -9 326 11 q 306 30 306 70 q 306 81 308 96 q 309 111 312 131 q 272 63 224 27 q 176 -9 126 -9 q 72 -9 43 28 q 13 65 13 132 q 13 194 35 258 q 57 322 96 376 q 136 431 184 460 q 232 490 280 490 q 316 490 342 475 q 367 460 381 430 z"},"L":{"x_min":0,"x_max":618,"ha":618,"o":"m 377 718 l 377 679 q 326 678 310 667 q 293 655 286 612 l 192 41 l 337 41 q 401 41 430 48 q 459 55 479 71 q 501 90 517 122 q 532 154 549 219 l 584 219 q 574 172 564 121 q 554 70 541 0 l 5 0 l 5 41 q 46 41 62 52 q 77 62 84 103 l 164 589 q 167 605 168 619 q 170 633 170 642 q 170 661 157 668 q 145 676 104 679 l 104 718 q 160 715 188 714 q 217 713 235 713 q 259 713 292 714 q 325 715 377 718 z"},"3":{"x_min":0,"x_max":581,"ha":581,"o":"m 80 119 q 95 78 133 55 q 170 33 224 33 q 298 33 344 81 q 390 129 390 206 q 390 264 356 295 q 322 325 257 325 q 244 325 234 325 q 223 324 212 323 l 225 365 q 311 373 361 419 q 411 466 411 538 q 411 595 374 632 q 337 668 280 668 q 226 668 189 636 q 152 605 151 557 q 186 555 205 539 q 224 524 224 498 q 224 475 210 462 q 197 449 173 449 q 141 449 118 474 q 96 499 96 536 q 96 610 156 660 q 216 709 309 709 q 402 709 459 662 q 517 616 517 541 q 517 468 462 418 q 408 369 305 350 q 404 346 454 307 q 504 269 504 196 q 504 104 433 48 q 362 -9 246 -9 q 152 -9 91 40 q 30 89 30 163 q 30 200 46 223 q 62 245 89 245 q 108 245 121 231 q 133 217 133 196 q 133 172 119 152 q 105 132 80 119 z"},";":{"x_min":0,"x_max":318,"ha":318,"o":"m 168 438 q 195 438 213 420 q 231 401 231 374 q 231 350 212 331 q 193 312 168 312 q 143 312 124 331 q 105 350 105 375 q 105 402 123 420 q 141 438 168 438 z m -7 -141 q 55 -115 89 -83 q 123 -52 123 -20 q 123 -13 121 -8 q 119 -4 115 -4 q 112 -4 105 -5 q 98 -6 94 -6 q 70 -6 55 10 q 40 26 40 53 q 40 83 59 102 q 78 121 107 121 q 141 121 162 96 q 183 71 183 31 q 183 -38 137 -89 q 92 -140 5 -169 z"},"J":{"x_min":0,"x_max":438,"ha":438,"o":"m 442 718 l 442 679 q 391 677 376 666 q 361 654 354 611 l 287 195 q 269 82 251 33 q 234 -16 205 -50 q 173 -88 130 -108 q 88 -128 39 -128 q -18 -128 -54 -100 q -91 -72 -91 -30 q -91 -6 -76 10 q -61 25 -37 25 q -11 25 8 3 q 27 -19 27 -50 q 27 -60 23 -82 q 23 -84 23 -85 q 30 -87 37 -89 q 43 -90 49 -90 q 88 -90 111 -53 q 133 -17 149 76 l 232 589 q 235 607 236 622 q 238 637 238 642 q 238 664 220 671 q 203 679 143 679 l 143 718 q 204 715 239 714 q 273 713 296 713 q 316 713 348 714 q 379 715 442 718 z"},"V":{"x_min":0,"x_max":634,"ha":634,"o":"m 294 718 l 294 679 q 255 679 241 670 q 226 661 226 639 q 226 632 227 623 q 229 613 231 598 l 322 144 l 516 565 q 528 592 535 613 q 542 634 542 644 q 542 675 472 679 l 471 679 l 471 718 q 507 715 531 714 q 555 713 572 713 q 588 713 611 714 q 634 715 670 718 l 670 679 q 640 677 622 662 q 604 647 576 588 l 298 3 l 241 -9 l 105 606 q 94 655 78 666 q 62 676 19 679 l 19 718 q 80 715 105 714 q 131 713 145 713 q 173 713 209 714 q 245 715 294 718 z"},"\"":{"x_min":0,"x_max":339,"ha":339,"o":"m 242 418 l 206 642 q 206 646 205 650 q 205 654 205 661 q 205 686 218 700 q 230 714 252 714 q 274 714 286 700 q 299 687 299 662 q 299 656 297 645 q 297 643 297 642 l 261 418 z m 78 418 l 42 642 q 42 646 41 650 q 41 654 41 661 q 41 687 53 700 q 65 714 87 714 q 110 714 122 700 q 134 687 134 661 q 134 653 134 649 q 133 645 133 642 l 97 418 z"},"7":{"x_min":0,"x_max":582,"ha":582,"o":"m 160 707 l 139 623 q 166 673 187 689 q 208 705 238 705 q 279 705 356 693 q 433 681 466 681 q 497 681 516 688 q 536 695 549 710 l 576 692 q 537 613 441 451 q 344 289 319 201 q 303 144 291 63 q 280 -17 261 -17 q 256 -17 250 -14 q 244 -11 236 -5 l 198 27 q 188 35 184 43 q 180 51 180 61 q 180 94 207 161 q 233 228 274 290 q 299 328 352 400 q 463 553 496 633 q 475 613 450 604 q 426 594 395 594 q 370 594 314 602 q 259 609 230 609 q 183 609 156 587 q 130 565 100 500 l 71 512 q 86 557 101 602 q 115 647 133 712 z"},"S":{"x_min":0,"x_max":590,"ha":590,"o":"m 509 697 l 539 697 q 529 652 522 601 q 515 549 510 491 l 476 491 l 476 499 q 476 594 439 641 q 402 687 327 687 q 269 687 234 654 q 198 621 198 567 q 198 503 321 427 q 336 417 345 412 q 444 351 479 305 q 514 259 514 201 q 514 112 446 52 q 378 -9 276 -9 q 219 -9 169 9 q 120 27 78 64 l 65 25 l 34 25 q 45 84 52 142 q 60 200 63 254 l 99 254 q 98 238 97 230 q 97 223 97 216 q 97 129 142 79 q 186 30 263 30 q 324 30 359 65 q 395 100 395 159 q 395 238 251 328 l 237 337 q 144 395 114 435 q 84 474 84 525 q 84 613 149 670 q 214 727 318 727 q 364 727 408 712 q 453 697 496 666 z"},"}":{"x_min":0,"x_max":500,"ha":500,"o":"m 281 571 l 281 473 q 281 394 309 364 q 336 334 414 327 l 414 294 q 337 288 309 258 q 281 228 281 148 l 281 50 q 281 -46 240 -83 q 199 -119 90 -119 l 85 -119 l 85 -91 q 148 -90 171 -65 q 194 -40 194 37 l 194 104 q 194 215 221 255 q 249 294 323 310 q 250 326 222 365 q 194 405 194 516 l 194 583 q 194 660 171 686 q 147 711 85 712 l 85 740 l 90 740 q 199 740 240 704 q 281 667 281 571 z"},"Z":{"x_min":0,"x_max":678,"ha":678,"o":"m 288 718 l 633 718 l 173 43 l 377 43 q 479 43 520 78 q 561 112 579 209 l 614 209 q 603 155 594 101 q 585 47 578 -6 q 501 -3 457 -1 q 412 0 398 0 l 5 0 l 465 675 l 321 675 q 195 675 161 647 q 127 619 114 535 l 80 535 q 89 594 93 639 q 97 685 98 724 q 143 721 190 719 q 238 718 288 718 z"},"x":{"x_min":0,"x_max":574,"ha":574,"o":"m 526 367 l 500 367 q 501 381 501 390 q 502 399 502 406 q 502 426 493 437 q 484 447 467 447 q 442 447 412 413 q 382 380 321 277 q 324 262 329 236 q 361 56 406 56 q 427 56 448 77 q 469 98 490 140 l 511 125 q 480 58 440 24 q 399 -10 350 -10 q 299 -10 273 34 q 247 78 232 194 q 177 94 129 43 q 81 -7 41 -7 q 20 -7 9 6 q -3 19 -3 43 q -3 60 2 83 q 7 107 18 140 l 43 140 q 38 119 35 102 q 32 84 32 72 q 32 56 38 47 q 44 38 55 38 q 84 38 124 83 q 164 127 218 219 q 201 368 186 402 q 170 436 139 436 q 118 436 97 419 q 76 402 52 367 l 31 380 q 62 432 106 460 q 151 489 199 489 q 253 489 278 448 q 303 408 309 307 q 360 402 400 445 q 440 488 478 488 q 503 488 516 473 q 530 458 530 429 q 530 411 526 370 z"},")":{"x_min":0,"x_max":404,"ha":404,"o":"m -36 -222 l -49 -199 q 72 -130 143 9 q 214 147 214 315 q 214 420 181 523 q 147 625 80 727 l 100 746 q 196 637 246 520 q 296 403 296 287 q 296 123 208 -11 q 121 -146 -36 -222 z"},"&":{"x_min":0,"x_max":741,"ha":741,"o":"m 294 378 q 284 379 274 382 q 264 385 253 390 q 204 373 175 325 q 146 277 146 214 q 146 138 197 89 q 248 39 327 39 q 418 39 472 90 q 527 140 527 224 q 527 248 521 272 q 515 297 502 325 q 494 326 479 327 q 454 330 444 330 q 414 330 396 319 q 377 308 366 283 q 383 271 392 254 q 401 237 401 218 q 401 197 390 184 q 378 172 360 172 q 338 172 325 190 q 311 208 311 237 q 311 298 360 335 q 409 372 492 372 q 520 372 571 368 q 623 364 647 364 q 680 364 693 372 q 707 380 717 403 l 737 394 q 722 343 707 327 q 691 312 652 312 q 630 312 574 316 q 562 317 556 318 q 564 297 568 276 q 572 254 572 229 q 572 125 493 58 q 415 -9 290 -9 q 176 -9 106 49 q 36 106 36 199 q 36 277 83 331 q 129 385 218 409 q 160 429 131 464 q 102 499 102 549 q 102 625 163 676 q 224 727 318 727 q 398 727 452 688 q 506 649 506 597 q 506 576 495 563 q 484 551 466 551 q 441 551 429 571 q 416 592 416 631 q 416 635 417 640 q 417 645 417 645 q 417 667 397 678 q 377 690 339 690 q 280 690 245 651 q 211 611 211 543 q 211 491 235 457 q 260 424 308 409 z"},"_":{"x_min":0,"x_max":500,"ha":500,"o":"m 500 -152 l 500 -236 l 0 -236 l 0 -152 z"},"v":{"x_min":0,"x_max":524,"ha":524,"o":"m 297 483 q 246 365 218 273 q 191 181 191 126 q 191 84 206 65 q 221 45 252 45 q 289 45 325 79 q 361 112 391 174 q 410 213 421 257 q 433 301 433 321 q 433 329 413 368 q 392 407 392 439 q 392 460 403 473 q 413 486 430 486 q 453 486 465 461 q 477 437 477 390 q 477 330 457 259 q 436 188 401 127 q 364 62 314 27 q 264 -9 210 -9 q 151 -9 118 29 q 85 66 85 133 q 85 206 123 279 q 161 353 247 448 q 216 428 189 419 q 162 410 135 410 q 121 410 98 416 q 76 422 67 422 q 50 422 34 407 q 18 392 -1 359 l -22 374 q 11 436 39 461 q 67 486 99 486 q 113 486 152 476 q 190 467 214 467 q 228 467 242 472 q 256 477 272 486 z"},"O":{"x_min":0,"x_max":752,"ha":752,"o":"m 420 725 q 551 725 635 635 q 718 544 718 401 q 718 329 697 262 q 676 196 636 141 q 583 67 507 28 q 432 -11 344 -11 q 207 -11 121 79 q 35 169 35 316 q 35 389 56 456 q 78 522 119 577 q 174 650 250 688 q 327 725 420 725 z m 587 457 q 587 562 541 624 q 495 685 417 685 q 373 685 332 663 q 291 642 263 602 q 218 539 193 448 q 167 358 167 261 q 167 151 211 90 q 256 28 335 28 q 384 28 427 54 q 469 81 503 133 q 542 192 564 279 q 587 366 587 457 z"},"(":{"x_min":0,"x_max":404,"ha":404,"o":"m 431 722 q 310 654 239 515 q 168 376 168 208 q 168 103 201 0 q 235 -103 302 -203 l 282 -222 q 186 -113 135 3 q 85 120 85 237 q 85 400 173 535 q 261 670 417 746 z"},"C":{"x_min":0,"x_max":664,"ha":664,"o":"m 629 683 l 661 682 q 651 629 642 573 q 633 517 625 458 l 591 458 q 592 476 593 490 q 594 505 594 513 q 594 590 550 636 q 506 682 433 682 q 313 682 241 574 q 169 467 169 288 q 169 171 220 107 q 272 43 365 43 q 437 43 489 80 q 542 118 579 195 l 610 180 q 570 88 500 40 q 430 -9 337 -9 q 196 -9 115 75 q 34 158 34 304 q 34 488 141 608 q 248 727 412 727 q 471 727 522 706 q 573 684 612 643 z"},"W":{"x_min":0,"x_max":995,"ha":995,"o":"m 297 718 l 297 679 q 258 679 244 670 q 229 661 229 639 q 229 632 230 622 q 231 612 234 598 l 317 144 l 503 578 l 500 606 q 495 648 477 662 q 460 677 414 679 l 414 718 q 473 715 500 714 q 526 713 541 713 q 569 713 604 714 q 640 715 689 718 l 689 679 q 650 679 635 670 q 621 661 621 638 q 621 631 624 608 q 625 602 625 598 l 686 150 l 875 565 q 887 592 894 613 q 901 634 901 644 q 901 654 897 661 q 894 668 888 671 q 879 676 835 679 q 832 679 830 679 l 830 718 q 866 715 890 714 q 914 713 931 713 q 947 713 970 714 q 993 715 1030 718 l 1030 679 q 999 677 980 662 q 962 646 935 588 l 658 3 l 600 -9 l 516 507 l 294 3 l 236 -9 l 108 606 q 98 654 82 665 q 67 676 22 679 l 22 718 q 83 715 108 714 q 134 713 148 713 q 177 713 213 714 q 250 715 297 718 z"},"A":{"x_min":0,"x_max":629,"ha":629,"o":"m 364 305 l 320 612 l 176 305 z m 510 143 q 511 139 512 130 q 526 43 599 39 l 599 0 q 533 3 508 4 q 482 5 468 5 q 443 5 408 4 q 374 2 322 0 l 322 39 q 367 42 380 52 q 393 62 393 90 q 393 97 392 107 q 391 116 389 128 l 369 265 l 159 265 l 90 120 q 83 105 80 93 q 76 80 76 71 q 76 53 89 47 q 101 40 141 39 l 141 0 q 99 3 77 4 q 55 5 41 5 q 31 5 12 4 q -6 3 -53 0 l -53 39 q -21 40 0 58 q 21 76 54 145 l 287 626 q 304 645 320 668 q 335 691 350 721 l 415 731 z"},"f":{"x_min":0,"x_max":338,"ha":338,"o":"m 346 454 l 340 417 l 226 417 l 194 215 q 172 77 153 -13 q 133 -103 111 -175 l 2 -213 q 41 -84 89 223 l 91 235 l 120 417 l 25 417 l 31 454 l 125 454 q 143 592 202 668 q 261 744 350 744 q 408 744 443 717 q 478 689 478 645 q 478 619 465 603 q 452 587 430 587 q 409 587 396 601 q 384 615 384 638 q 384 650 388 667 q 393 683 393 686 q 393 695 382 702 q 371 709 355 709 q 309 709 283 662 q 258 616 231 454 z"},"Q":{"x_min":0,"x_max":752,"ha":752,"o":"m 473 92 q 523 131 556 229 q 589 328 589 447 q 589 559 544 622 q 499 684 418 684 q 353 684 301 641 q 249 599 213 516 q 189 460 176 396 q 163 332 163 270 q 163 231 169 201 q 174 171 187 143 q 225 164 261 174 q 297 184 332 184 q 386 184 421 161 q 457 138 473 92 z m 392 38 q 385 85 359 109 q 332 133 286 133 q 264 133 244 128 q 224 123 203 111 q 227 71 260 50 q 293 30 335 30 q 346 30 360 32 q 374 34 392 38 z m 710 -37 l 710 -72 q 676 -99 636 -113 q 597 -127 557 -127 q 495 -127 452 -94 q 409 -62 398 -7 q 375 -8 362 -9 q 348 -10 344 -10 q 206 -10 121 81 q 36 171 36 318 q 36 402 65 477 q 93 552 148 610 q 200 666 268 695 q 335 724 412 724 q 547 724 631 633 q 715 542 715 394 q 715 273 658 177 q 602 80 500 25 q 511 -25 538 -47 q 564 -70 611 -70 q 637 -70 660 -62 q 684 -54 710 -37 z"},"w":{"x_min":0,"x_max":782,"ha":782,"o":"m 297 483 q 245 364 218 270 q 190 177 190 120 q 190 85 200 70 q 210 55 234 55 q 280 55 332 151 q 385 246 424 406 l 441 474 l 531 474 q 496 343 479 261 q 462 179 462 139 q 462 97 476 76 q 490 55 517 55 q 549 55 585 92 q 620 129 649 194 q 666 232 677 271 q 688 310 688 324 q 688 330 670 367 q 653 405 653 434 q 653 457 663 471 q 674 486 690 486 q 713 486 724 468 q 735 449 735 411 q 735 354 715 280 q 695 206 661 143 q 622 71 570 31 q 518 -9 463 -9 q 418 -9 396 18 q 374 44 374 97 q 374 122 377 146 q 380 169 387 191 q 341 86 294 39 q 247 -9 191 -9 q 141 -9 113 26 q 85 61 85 124 q 85 197 123 273 q 161 350 247 448 q 216 428 189 419 q 162 410 135 410 q 121 410 98 417 q 76 423 67 423 q 50 423 34 408 q 18 393 -1 359 l -22 374 q 11 436 39 461 q 67 486 99 486 q 113 486 152 476 q 190 467 214 467 q 228 467 242 472 q 256 477 272 486 z"},"-":{"x_min":0,"x_max":331,"ha":331,"o":"m 276 287 l 261 206 l 23 206 l 38 287 z"},"E":{"x_min":0,"x_max":674,"ha":674,"o":"m 617 718 l 617 519 l 582 519 l 582 541 q 582 621 555 650 q 529 678 451 678 l 297 678 l 250 391 l 293 391 q 376 391 402 412 q 428 434 437 497 l 471 497 q 459 435 449 369 q 439 302 431 230 l 397 230 q 397 234 398 242 q 401 272 401 284 q 401 325 385 338 q 369 351 313 351 l 243 351 l 192 41 l 360 41 q 424 41 453 48 q 481 55 501 71 q 522 88 538 118 q 554 148 572 209 l 607 209 q 594 155 583 103 q 572 51 563 0 l 5 0 l 5 41 q 46 41 62 52 q 77 62 84 103 l 164 589 q 167 609 168 623 q 170 636 170 643 q 170 662 156 669 q 142 677 104 678 l 104 718 z"},"s":{"x_min":0,"x_max":431,"ha":431,"o":"m 308 427 q 293 442 274 450 q 254 457 228 457 q 190 457 166 437 q 142 417 142 384 q 142 337 220 296 q 229 292 233 289 q 303 251 325 221 q 348 191 348 146 q 348 77 299 34 q 249 -9 168 -9 q 96 -9 51 24 q 5 58 5 109 q 5 135 19 153 q 32 170 53 170 q 71 170 83 158 q 94 146 94 128 q 94 111 85 92 q 76 72 76 69 q 76 53 103 38 q 129 24 165 24 q 208 24 232 45 q 256 67 256 105 q 256 152 180 192 q 171 197 166 200 q 103 234 80 265 q 56 295 56 339 q 56 406 102 448 q 148 490 225 490 q 292 490 337 460 q 381 430 381 385 q 381 361 369 347 q 357 333 338 333 q 319 333 307 346 q 294 359 294 378 q 294 388 297 400 q 301 412 308 427 z"},">":{"x_min":0,"x_max":833,"ha":833,"o":"m 704 337 l 704 259 l 129 23 l 129 112 l 585 298 l 129 484 l 129 574 z"},"l":{"x_min":0,"x_max":312,"ha":312,"o":"m 149 128 q 146 112 144 100 q 142 88 142 81 q 142 64 150 54 q 159 44 173 44 q 193 44 215 67 q 237 91 262 137 l 287 125 q 253 56 214 24 q 175 -9 126 -9 q 83 -9 60 13 q 36 36 36 75 q 36 86 38 101 q 41 116 46 138 l 150 613 q 154 631 156 646 q 158 661 158 669 q 158 703 90 706 q 89 706 88 706 l 94 739 q 104 739 130 737 q 157 736 170 736 q 189 736 214 737 q 239 739 283 743 z"},"8":{"x_min":0,"x_max":581,"ha":581,"o":"m 338 395 q 383 413 408 453 q 433 494 433 548 q 433 605 403 638 q 373 671 321 671 q 268 671 233 636 q 198 601 198 547 q 198 494 229 460 q 260 426 338 395 z m 212 359 q 152 389 125 427 q 98 464 98 517 q 98 601 160 654 q 221 708 319 708 q 415 708 471 661 q 527 613 527 533 q 527 478 490 437 q 454 397 380 371 q 444 345 475 303 q 506 262 506 203 q 506 112 434 52 q 361 -9 251 -9 q 151 -9 91 41 q 30 90 30 171 q 30 241 77 290 q 125 339 212 359 z m 252 331 q 188 307 158 268 q 128 230 128 171 q 128 108 165 68 q 202 28 259 28 q 316 28 357 70 q 397 112 397 172 q 397 228 365 264 q 333 299 252 331 z"},"\\":{"x_min":0,"x_max":317,"ha":317,"o":"m 85 727 l 306 -93 l 251 -93 l 29 727 z"},"e":{"x_min":0,"x_max":475,"ha":475,"o":"m 363 150 l 388 134 q 353 63 299 27 q 246 -9 177 -9 q 101 -9 57 38 q 14 84 14 167 q 14 234 43 300 q 73 367 123 414 q 163 451 211 471 q 259 490 312 490 q 372 490 404 465 q 436 440 436 394 q 436 323 358 282 q 280 241 143 241 q 137 210 133 183 q 130 156 130 133 q 130 83 150 60 q 169 36 211 36 q 253 36 293 66 q 333 96 363 150 z m 149 274 q 246 275 294 307 q 343 338 343 399 q 343 424 328 439 q 313 454 288 454 q 241 454 206 408 q 170 363 149 274 z"},"b":{"x_min":0,"x_max":542,"ha":542,"o":"m 164 222 l 135 87 q 134 83 133 78 q 133 74 133 67 q 133 46 147 36 q 162 25 189 25 q 229 25 262 50 q 295 74 324 125 q 354 179 374 246 q 393 313 393 358 q 393 393 380 410 q 368 427 342 427 q 302 427 257 375 q 212 324 164 222 z m 178 316 q 224 398 273 438 q 322 479 375 479 q 433 479 466 438 q 499 398 499 327 q 499 190 411 91 q 324 -9 204 -9 q 170 -9 144 -2 q 118 4 94 19 l 21 -6 l -2 7 q 13 34 23 62 q 33 91 41 130 l 136 612 q 139 628 141 644 q 143 659 143 668 q 143 702 88 704 q 79 705 74 705 l 80 738 q 85 738 95 737 q 139 736 155 736 q 172 736 195 737 q 218 739 267 743 z"},"%":{"x_min":0,"x_max":838,"ha":838,"o":"m 628 391 q 587 391 567 345 q 547 298 547 206 q 547 114 567 68 q 587 22 628 22 q 668 22 688 68 q 708 113 708 206 q 708 299 688 345 q 668 391 628 391 z m 628 421 q 703 421 747 363 q 791 306 791 206 q 791 106 747 49 q 703 -9 628 -9 q 553 -9 508 49 q 464 107 464 206 q 464 305 508 363 q 553 421 628 421 z m 211 678 q 171 678 151 632 q 131 586 131 493 q 131 400 151 355 q 171 309 211 309 q 251 309 271 355 q 291 400 291 493 q 291 586 271 632 q 251 678 211 678 z m 211 708 q 286 708 330 650 q 374 592 374 493 q 374 394 330 336 q 286 278 211 278 q 136 278 92 336 q 48 394 48 493 q 48 592 92 650 q 136 708 211 708 z m 619 708 l 671 708 l 219 -9 l 168 -9 z"},"m":{"x_min":0,"x_max":887,"ha":887,"o":"m 491 334 q 548 418 595 452 q 642 487 697 487 q 739 487 764 463 q 789 438 789 397 q 789 378 784 354 q 778 329 766 293 l 709 124 q 702 104 699 92 q 697 81 697 72 q 697 58 705 50 q 713 42 727 42 q 748 42 771 65 q 793 88 818 135 l 843 123 q 810 55 771 23 q 733 -9 684 -9 q 639 -9 614 12 q 589 34 589 72 q 589 86 592 101 q 595 117 600 132 l 664 320 q 673 347 678 367 q 683 387 683 398 q 683 417 675 425 q 667 434 650 434 q 607 434 548 360 q 489 287 469 199 l 425 0 l 318 0 l 397 341 q 401 361 404 376 q 406 391 406 401 q 406 416 399 425 q 392 434 380 434 q 340 434 282 360 q 225 286 206 199 l 162 0 l 55 0 l 133 350 q 136 367 138 380 q 140 394 140 401 q 140 418 133 428 q 126 439 115 439 q 91 439 67 418 q 42 397 13 350 l -10 366 q 25 427 67 457 q 109 487 158 487 q 197 487 217 468 q 238 449 238 413 q 238 401 235 381 q 231 361 224 328 q 279 411 327 449 q 376 487 427 487 q 464 487 484 468 q 504 449 504 415 q 504 402 501 383 q 498 363 491 334 z"},"#":{"x_min":0,"x_max":769,"ha":769,"o":"m 477 419 l 343 419 l 297 290 l 431 290 z m 449 713 l 373 500 l 504 500 l 580 713 l 669 713 l 593 500 l 735 500 l 706 419 l 564 419 l 519 291 l 669 291 l 640 209 l 490 209 l 415 -3 l 325 -3 l 401 209 l 270 209 l 195 -3 l 105 -3 l 181 209 l 34 209 l 63 291 l 210 291 l 255 419 l 99 419 l 129 500 l 284 500 l 360 713 z"},",":{"x_min":0,"x_max":291,"ha":291,"o":"m -3 -141 q 59 -115 93 -83 q 127 -52 127 -20 q 127 -13 125 -8 q 123 -4 119 -4 q 116 -4 109 -5 q 102 -6 98 -6 q 74 -6 59 10 q 44 26 44 53 q 44 83 63 102 q 82 121 111 121 q 145 121 166 96 q 187 71 187 31 q 187 -38 141 -89 q 96 -140 9 -169 z"},"n":{"x_min":0,"x_max":623,"ha":623,"o":"m 503 293 l 446 124 q 439 104 437 92 q 434 81 434 72 q 434 58 442 50 q 450 42 464 42 q 485 42 508 65 q 530 88 555 135 l 580 123 q 547 55 509 23 q 470 -9 421 -9 q 376 -9 351 12 q 326 34 326 72 q 326 86 329 101 q 332 117 337 132 l 402 320 q 411 344 415 365 q 420 386 420 398 q 420 417 412 425 q 404 434 387 434 q 344 434 285 361 q 226 287 206 199 l 162 0 l 55 0 l 133 350 q 136 367 138 380 q 140 394 140 401 q 140 418 133 428 q 126 439 115 439 q 91 439 67 418 q 42 397 13 350 l -10 366 q 25 427 67 457 q 109 487 158 487 q 197 487 217 468 q 238 449 238 413 q 238 401 235 381 q 231 361 224 328 q 282 416 330 451 q 378 487 434 487 q 476 487 501 462 q 527 438 527 397 q 527 379 522 356 q 517 333 503 293 z"},"h":{"x_min":0,"x_max":587,"ha":587,"o":"m 194 338 q 248 419 295 453 q 341 487 396 487 q 438 487 463 463 q 488 438 488 397 q 488 377 483 354 q 478 330 465 293 l 408 124 q 401 102 398 91 q 396 80 396 72 q 396 58 404 50 q 412 42 426 42 q 447 42 469 65 q 492 88 517 135 l 542 123 q 509 55 470 23 q 432 -9 383 -9 q 338 -9 313 12 q 288 34 288 72 q 288 86 291 101 q 293 117 299 132 l 363 320 q 372 346 377 366 q 382 387 382 398 q 382 417 374 425 q 366 434 349 434 q 306 434 246 360 q 187 286 168 199 l 126 0 l 22 0 l 147 612 q 151 635 152 646 q 154 658 154 667 q 154 702 95 705 q 89 705 85 705 l 91 738 q 96 738 106 737 q 150 736 166 736 q 183 736 206 737 q 229 739 278 743 z"},"z":{"x_min":0,"x_max":470,"ha":470,"o":"m 414 474 q 353 369 229 246 q 106 124 79 81 q 99 97 118 104 q 138 112 160 112 q 188 112 250 95 q 313 78 344 78 q 369 78 380 94 q 392 110 394 148 l 414 146 q 413 61 392 25 q 371 -10 322 -10 q 290 -10 208 14 q 125 37 84 37 q 61 37 46 28 q 31 19 18 -3 l 0 14 q 57 124 188 259 q 318 394 349 433 q 320 414 294 404 q 269 395 244 395 q 219 395 177 403 q 136 410 121 410 q 101 410 86 400 q 71 389 46 352 l 26 364 q 59 429 92 460 q 125 490 162 490 q 179 490 238 479 q 296 467 337 467 q 361 467 375 472 q 388 477 397 487 z"},"B":{"x_min":0,"x_max":660,"ha":660,"o":"m 298 340 l 240 340 l 191 39 q 218 38 238 37 q 259 36 273 36 q 362 36 406 79 q 449 123 449 211 q 449 277 413 309 q 376 340 298 340 z m 10 0 l 10 38 q 49 40 65 51 q 80 62 87 103 l 166 589 q 169 608 171 624 q 173 639 173 643 q 173 661 160 669 q 147 676 107 679 l 107 720 q 125 720 163 718 q 201 716 221 716 q 260 716 313 718 q 365 720 379 720 q 484 720 538 678 q 591 636 591 552 q 591 466 536 417 q 480 368 380 363 q 474 351 523 306 q 572 261 572 188 q 572 97 508 46 q 444 -5 329 -5 q 297 -5 213 -1 q 129 3 77 3 q 63 3 40 2 q 17 0 10 0 z m 297 678 l 247 382 q 259 381 271 381 q 282 381 295 381 q 390 381 432 424 q 474 467 474 562 q 474 623 445 651 q 416 679 351 679 q 334 679 322 679 q 310 679 297 678 z"},"K":{"x_min":0,"x_max":676,"ha":676,"o":"m 365 718 l 365 679 q 324 678 308 666 q 292 653 285 612 l 241 341 q 361 453 437 541 q 513 628 513 651 q 513 664 504 670 q 495 676 469 679 l 469 718 q 482 717 505 716 q 552 713 572 713 q 585 713 617 715 q 650 717 667 718 l 667 679 q 665 680 663 680 q 661 680 657 680 q 618 680 517 566 q 431 470 369 410 q 468 273 553 120 q 565 98 569 91 q 587 60 607 49 q 627 38 664 38 l 664 0 q 639 1 594 3 q 549 5 533 5 q 516 5 467 3 q 417 1 388 0 l 388 38 q 422 38 433 44 q 444 49 444 64 q 444 85 420 131 q 396 176 343 256 l 290 334 l 232 286 l 206 128 l 206 125 q 200 88 200 73 q 200 56 216 48 q 231 40 270 38 l 270 0 q 214 3 185 4 q 156 5 137 5 q 120 5 91 4 q 63 3 3 0 l 3 38 q 45 39 61 51 q 77 62 84 105 l 164 589 q 167 605 168 619 q 170 633 170 643 q 170 662 156 669 q 142 677 104 679 l 104 718 q 153 715 183 714 q 213 713 234 713 q 257 713 288 714 q 319 715 365 718 z"},"R":{"x_min":0,"x_max":694,"ha":694,"o":"m 248 385 l 251 385 q 290 383 307 383 q 397 383 448 429 q 498 475 498 556 q 498 622 463 652 q 429 683 354 683 q 340 683 326 683 q 312 682 297 681 z m 395 363 q 471 346 505 309 q 538 272 538 206 q 538 187 534 152 q 531 117 531 101 q 531 77 543 62 q 555 48 574 48 q 592 48 609 62 q 626 77 643 107 l 669 91 q 641 40 604 15 q 567 -10 519 -10 q 466 -10 438 18 q 409 46 409 98 q 409 124 417 173 q 424 222 424 245 q 424 301 392 324 q 361 346 279 346 q 273 346 261 346 q 249 345 242 345 l 206 128 q 203 108 201 93 q 199 78 199 75 q 199 56 213 48 q 226 41 267 38 l 267 0 q 214 3 185 4 q 156 5 137 5 q 119 5 89 4 q 60 3 6 0 l 6 38 q 47 40 63 51 q 78 62 85 103 l 164 589 q 167 607 169 622 q 171 637 171 642 q 171 660 159 668 q 146 677 105 683 l 105 719 q 144 717 174 717 q 204 716 225 716 q 262 716 317 718 q 372 719 391 719 q 507 719 566 676 q 624 632 624 546 q 624 463 566 416 q 507 370 395 363 z"},"T":{"x_min":0,"x_max":676,"ha":676,"o":"m 210 718 l 589 718 q 617 718 643 719 q 669 720 695 722 q 693 674 693 623 q 692 572 692 518 l 660 518 l 660 533 q 660 613 631 646 q 603 679 534 679 l 444 679 l 354 131 q 351 110 349 96 q 347 82 347 76 q 347 57 364 47 q 381 38 416 38 l 433 38 l 433 0 q 367 3 334 4 q 300 5 280 5 q 264 5 235 4 q 207 3 136 0 l 136 38 l 150 38 q 190 38 207 50 q 224 62 231 104 l 326 679 l 233 679 q 156 679 119 645 q 83 611 66 528 l 33 528 q 54 610 64 650 q 74 689 82 722 q 104 720 130 719 q 156 718 210 718 z"},"P":{"x_min":0,"x_max":632,"ha":632,"o":"m 207 128 q 204 111 202 95 q 200 80 200 75 q 200 54 218 46 q 236 38 291 38 l 291 0 q 234 3 198 4 q 163 5 137 5 q 121 5 94 4 q 67 3 5 0 l 5 38 q 45 39 61 50 q 77 62 84 103 l 164 589 q 167 606 168 622 q 170 637 170 642 q 170 660 157 668 q 145 677 104 681 l 104 719 q 139 717 164 717 q 190 716 206 716 q 227 716 278 718 q 329 719 359 719 q 481 719 546 668 q 611 616 611 520 q 611 413 538 360 q 466 306 321 306 q 301 306 280 307 q 259 308 237 309 z m 244 350 q 252 350 265 349 q 288 348 295 348 q 396 348 440 393 q 485 438 485 537 q 485 613 448 647 q 411 681 327 681 q 315 681 309 681 q 304 681 298 680 z"},"|":{"x_min":0,"x_max":500,"ha":500,"o":"m 294 764 l 294 -236 l 207 -236 l 207 764 z"},"t":{"x_min":0,"x_max":371,"ha":371,"o":"m 259 618 l 225 451 l 344 451 l 338 415 l 217 415 l 156 114 q 155 111 155 106 q 152 91 152 85 q 152 63 163 51 q 173 38 191 38 q 219 38 246 66 q 274 94 300 149 l 324 135 q 291 59 249 25 q 207 -10 148 -10 q 99 -10 73 13 q 46 36 46 79 q 46 92 54 132 l 55 137 l 113 415 l 29 415 l 35 451 l 121 451 l 157 618 z"},"M":{"x_min":0,"x_max":884,"ha":884,"o":"m 321 718 l 411 197 l 677 718 q 693 718 726 715 q 759 713 774 713 q 789 713 821 715 q 853 717 871 718 l 871 679 l 859 679 q 830 679 817 665 q 804 651 797 604 l 724 125 q 721 106 720 96 q 719 86 719 81 q 719 55 732 46 q 746 38 794 38 l 794 0 q 734 3 705 4 q 676 5 659 5 q 642 5 612 4 q 583 3 517 0 l 517 38 l 522 38 q 564 38 581 55 q 597 71 606 131 l 684 643 l 369 28 l 326 11 l 218 635 l 118 120 q 115 104 114 96 q 113 87 113 83 q 113 58 125 49 q 136 40 185 38 l 185 0 q 140 3 118 4 q 97 5 84 5 q 73 5 54 4 q 35 3 -12 0 l -12 38 q 32 38 48 53 q 65 67 78 134 l 171 593 q 174 608 175 622 q 177 636 177 644 q 177 662 163 669 q 149 676 105 679 l 105 718 q 143 715 170 714 q 198 713 220 713 q 234 713 256 714 q 277 715 321 718 z"},"g":{"x_min":0,"x_max":530,"ha":530,"o":"m 328 226 l 359 383 q 354 412 336 430 q 317 448 294 448 q 264 448 238 429 q 211 409 189 369 q 161 319 142 255 q 123 191 123 150 q 123 113 140 91 q 156 69 184 69 q 202 69 220 80 q 239 90 259 113 q 284 141 304 177 q 325 212 328 226 z m 381 480 l 485 480 q 455 346 423 178 q 391 9 382 -26 q 356 -125 292 -175 q 229 -226 131 -226 q 59 -226 16 -196 q -28 -167 -28 -118 q -28 -93 -14 -76 q 0 -59 20 -59 q 40 -59 51 -72 q 62 -84 62 -105 q 62 -118 54 -135 q 47 -153 47 -159 q 47 -172 70 -182 q 93 -192 125 -192 q 196 -192 236 -126 q 275 -61 312 137 q 270 71 227 40 q 184 9 135 9 q 80 9 47 49 q 15 88 15 157 q 15 213 36 274 q 56 335 92 384 q 128 435 175 462 q 222 490 270 490 q 303 490 328 477 q 353 464 371 437 z"},"j":{"x_min":0,"x_max":329,"ha":329,"o":"m 181 23 q 165 -49 147 -88 q 129 -127 100 -157 q 68 -190 29 -209 q -11 -227 -50 -227 q -96 -227 -126 -204 q -156 -180 -156 -145 q -156 -122 -143 -108 q -130 -94 -109 -94 q -86 -94 -72 -112 q -57 -129 -57 -157 q -57 -164 -58 -171 q -58 -178 -59 -189 q -54 -192 -49 -193 q -43 -195 -38 -195 q -3 -195 19 -157 q 41 -120 72 19 l 154 384 q 155 388 155 393 q 156 397 156 405 q 156 423 148 432 q 140 441 125 441 q 103 441 78 415 q 54 390 34 345 l 8 358 q 38 424 79 455 q 121 487 177 487 q 215 487 238 466 q 261 445 261 410 q 261 399 259 384 q 256 368 252 349 z m 215 694 q 240 694 256 679 q 273 665 273 642 q 273 611 253 589 q 233 567 206 567 q 182 567 167 583 q 151 599 151 622 q 151 653 169 673 q 188 694 215 694 z"},"i":{"x_min":0,"x_max":340,"ha":340,"o":"m 171 113 q 171 112 170 110 q 165 89 165 79 q 165 61 173 52 q 181 42 196 42 q 217 42 239 65 q 261 87 286 135 l 311 123 q 277 55 239 23 q 200 -9 152 -9 q 107 -9 83 13 q 58 34 58 73 q 58 84 61 98 q 63 112 69 132 l 137 366 q 140 375 141 385 q 143 394 143 402 q 143 417 136 426 q 129 434 116 434 q 98 434 77 413 q 57 392 31 347 l 5 361 q 37 423 79 455 q 122 486 174 486 q 209 486 230 467 q 252 448 252 416 q 252 403 249 386 q 246 370 240 349 z m 215 694 q 240 694 256 679 q 273 665 273 642 q 273 611 253 589 q 233 567 206 567 q 182 567 167 583 q 151 599 151 622 q 151 653 169 673 q 188 694 215 694 z"},"y":{"x_min":0,"x_max":581,"ha":581,"o":"m 207 223 q 193 177 188 153 q 183 129 183 112 q 183 94 191 86 q 199 77 214 77 q 232 77 255 95 q 278 113 308 152 q 333 185 353 222 q 372 260 377 281 l 422 478 l 527 478 l 446 106 q 404 -87 345 -156 q 285 -226 176 -226 q 105 -226 60 -200 q 15 -173 15 -134 q 15 -116 28 -103 q 40 -91 59 -91 q 85 -91 102 -110 q 119 -129 119 -159 q 119 -166 119 -170 q 119 -174 118 -179 q 130 -186 143 -189 q 156 -192 171 -192 q 240 -192 278 -123 q 316 -53 355 170 q 306 91 255 50 q 204 9 154 9 q 116 9 96 30 q 75 52 75 91 q 75 108 80 131 q 84 154 97 200 l 141 351 q 145 366 147 380 q 150 395 150 404 q 150 419 142 427 q 135 435 120 435 q 99 435 76 412 q 54 389 29 342 l 4 354 q 37 422 76 454 q 115 487 163 487 q 208 487 232 467 q 255 448 255 410 q 255 397 251 379 q 248 360 241 337 z"},"@":{"x_min":0,"x_max":986,"ha":986,"o":"m 637 402 l 662 485 l 746 485 l 662 184 l 661 181 q 654 152 654 137 q 654 113 665 100 q 675 87 694 87 q 710 87 735 98 q 759 108 780 125 q 833 168 862 233 q 891 299 891 378 q 891 514 798 598 q 705 681 552 681 q 467 681 391 649 q 315 618 258 559 q 198 498 168 419 q 138 341 138 245 q 138 161 167 95 q 196 30 255 -19 q 307 -62 375 -85 q 444 -108 523 -108 q 604 -108 680 -83 q 755 -58 828 -6 l 846 -29 q 774 -83 692 -111 q 611 -138 523 -138 q 431 -138 354 -115 q 276 -93 219 -50 q 146 5 107 85 q 68 166 68 262 q 68 361 110 448 q 152 535 232 601 q 298 655 377 683 q 457 711 546 711 q 716 711 818 619 q 920 527 920 374 q 920 296 891 229 q 862 161 809 113 q 779 86 746 73 q 713 59 681 59 q 633 59 607 85 q 580 110 577 159 q 546 108 510 84 q 474 60 429 60 q 364 60 325 105 q 287 150 287 226 q 287 281 311 333 q 335 385 380 428 q 413 460 452 477 q 491 493 531 493 q 575 493 602 470 q 629 447 637 402 z m 610 377 q 610 417 592 442 q 573 466 543 466 q 512 466 486 444 q 460 422 434 372 q 406 320 392 270 q 377 220 377 179 q 377 139 395 114 q 413 90 441 90 q 471 90 497 110 q 523 130 550 175 q 577 222 594 277 q 610 333 610 377 z"},".":{"x_min":0,"x_max":291,"ha":291,"o":"m 113 121 q 139 121 157 102 q 176 83 176 58 q 176 31 158 13 q 140 -5 112 -5 q 87 -5 68 14 q 50 33 50 59 q 50 83 69 102 q 88 121 113 121 z"},"p":{"x_min":0,"x_max":583,"ha":583,"o":"m 225 267 l 193 104 q 204 78 223 64 q 242 50 268 50 q 295 50 320 67 q 344 85 364 119 q 389 163 406 227 q 423 291 423 343 q 423 383 408 406 q 394 428 368 428 q 332 428 297 389 q 263 351 225 267 z m 186 61 l 151 -114 q 150 -117 149 -125 q 145 -145 145 -151 q 145 -171 158 -179 q 170 -186 222 -187 l 217 -220 q 208 -220 190 -219 q 116 -216 88 -216 q 66 -216 36 -217 q 6 -218 -30 -220 l -24 -187 l -16 -187 q 31 -187 42 -131 q 42 -126 43 -123 l 136 351 q 139 367 141 381 q 143 396 143 405 q 143 423 136 432 q 129 441 115 441 q 96 441 71 418 q 46 396 17 352 l -7 368 q 28 428 72 457 q 115 487 166 487 q 203 487 223 469 q 242 451 242 417 q 242 404 240 387 q 238 371 233 349 q 272 420 317 453 q 361 487 414 487 q 470 487 502 444 q 534 401 534 325 q 534 191 464 99 q 395 6 295 6 q 258 6 231 20 q 204 33 186 61 z"},"X":{"x_min":0,"x_max":660,"ha":660,"o":"m 339 718 l 339 679 q 302 679 287 673 q 272 667 272 652 q 272 644 275 632 q 278 621 284 609 l 364 441 l 493 614 q 501 625 505 633 q 509 642 509 650 q 509 663 496 670 q 482 677 454 679 l 454 718 q 489 715 512 714 q 536 713 553 713 q 568 713 591 714 q 613 715 651 718 l 651 679 q 618 677 594 661 q 569 645 532 597 l 382 404 l 507 138 q 511 129 518 114 q 552 38 616 38 l 616 0 q 546 3 521 4 q 496 5 482 5 q 457 5 422 4 q 387 2 333 0 l 333 38 q 366 38 382 45 q 397 51 397 66 q 397 73 394 84 q 391 95 385 108 l 291 310 l 141 103 q 134 93 130 84 q 127 76 127 69 q 127 56 140 48 q 153 41 181 38 l 181 0 q 138 3 116 4 q 94 5 81 5 q 67 5 45 4 q 23 3 -18 0 l -18 38 q 13 39 35 53 q 58 66 99 119 l 275 347 l 169 580 q 142 640 119 660 q 96 679 59 679 l 56 679 l 56 718 q 115 715 146 714 q 177 713 195 713 q 216 713 249 714 q 282 715 339 718 z"},"*":{"x_min":0,"x_max":467,"ha":467,"o":"m 260 519 q 264 500 272 465 q 280 430 280 420 q 280 401 272 390 q 265 379 248 375 q 231 380 224 391 q 216 402 216 420 q 216 431 226 474 q 231 501 235 519 z m 226 525 q 211 513 189 491 q 146 450 125 450 q 117 450 110 453 q 103 457 96 463 q 96 465 95 469 q 94 474 94 475 q 94 509 191 539 q 207 543 215 546 z m 400 463 q 393 457 385 453 q 378 450 370 450 q 348 450 289 506 q 276 519 269 525 l 281 546 q 293 542 316 535 q 401 510 401 476 q 401 473 401 469 q 400 466 400 463 z m 215 556 q 205 559 188 564 q 94 593 94 627 q 94 629 95 636 q 96 638 96 639 q 104 646 110 649 q 117 652 124 652 q 146 652 194 607 q 214 589 226 578 z m 281 557 l 269 578 q 281 588 300 606 q 349 652 372 652 q 379 652 386 649 q 394 646 400 639 q 400 636 401 633 q 401 630 401 627 q 401 614 395 605 q 390 597 377 589 q 369 584 335 574 q 302 564 281 557 z m 260 583 l 235 583 q 232 599 226 625 q 216 670 216 682 q 216 700 224 711 q 232 723 248 727 q 265 722 272 711 q 280 700 280 682 q 280 672 272 637 q 264 602 260 583 z"},"Y":{"x_min":0,"x_max":571,"ha":571,"o":"m 270 718 l 270 679 q 234 675 223 669 q 212 663 212 650 q 212 640 224 612 l 225 611 l 333 358 l 479 613 q 486 624 489 634 q 493 645 493 652 q 493 666 478 672 q 463 678 430 679 l 430 718 q 465 715 488 714 q 510 713 525 713 q 542 713 563 714 q 585 715 622 718 l 622 679 q 592 676 574 663 q 556 650 528 607 l 348 309 l 317 128 q 314 112 313 98 q 312 84 312 73 q 312 56 326 48 q 341 40 381 38 l 381 0 q 325 3 296 4 q 267 5 249 5 q 230 5 201 4 q 172 3 113 0 l 114 38 q 156 39 172 51 q 189 62 195 105 l 229 304 l 100 598 q 79 645 61 661 q 42 676 10 679 l 10 718 q 53 715 83 714 q 112 713 133 713 q 152 713 183 714 q 213 715 270 718 z"},"c":{"x_min":0,"x_max":481,"ha":481,"o":"m 423 142 q 392 65 339 28 q 287 -9 211 -9 q 121 -9 69 44 q 17 96 17 187 q 17 312 98 401 q 180 490 293 490 q 358 490 399 458 q 440 427 440 377 q 440 351 427 335 q 415 319 394 319 q 373 319 360 334 q 347 350 347 375 q 347 385 350 402 q 352 420 352 428 q 352 440 338 447 q 324 454 300 454 q 231 454 184 375 q 137 295 137 178 q 137 109 166 72 q 194 34 246 34 q 293 34 333 66 q 373 98 397 156 z"},"!":{"x_min":0,"x_max":349,"ha":349,"o":"m 127 121 q 153 121 171 103 q 190 84 190 58 q 190 31 172 13 q 154 -5 126 -5 q 101 -5 82 14 q 64 33 64 59 q 64 83 83 102 q 102 121 127 121 z m 158 179 l 125 184 q 136 288 146 449 q 156 611 168 650 q 178 682 196 702 q 214 722 236 727 q 255 715 265 693 q 275 670 275 638 q 275 597 229 441 q 183 285 158 179 z"},"/":{"x_min":0,"x_max":317,"ha":317,"o":"m 353 727 l -12 -93 l -71 -93 l 294 727 z"},"[":{"x_min":0,"x_max":348,"ha":348,"o":"m 366 701 q 346 694 323 691 q 300 688 276 688 l 259 688 l 117 -140 l 124 -140 q 143 -140 165 -143 q 187 -146 214 -153 l 208 -186 q 181 -180 157 -177 q 133 -174 110 -174 q 89 -174 71 -177 q 53 -180 35 -186 l 193 734 q 212 728 230 725 q 249 722 267 722 q 290 722 314 725 q 339 728 372 734 z"},"6":{"x_min":0,"x_max":581,"ha":581,"o":"m 158 293 q 157 274 156 258 q 155 242 155 230 q 155 137 188 83 q 220 29 275 29 q 334 29 374 92 q 414 154 414 250 q 414 315 386 352 q 358 388 309 388 q 268 388 231 365 q 195 342 158 293 z m 159 345 q 200 397 244 420 q 288 444 344 444 q 420 444 472 389 q 524 334 524 253 q 524 146 449 68 q 374 -10 270 -10 q 164 -10 102 68 q 41 146 41 282 q 41 364 65 440 q 88 515 133 576 q 181 641 241 675 q 301 709 366 709 q 442 709 488 670 q 533 631 533 568 q 533 530 519 509 q 505 488 480 488 q 464 488 455 500 q 445 511 445 530 q 445 553 455 572 q 464 590 483 603 q 467 638 440 655 q 413 673 376 673 q 289 673 233 588 q 177 503 159 345 z"},"r":{"x_min":0,"x_max":440,"ha":440,"o":"m 206 199 l 162 0 l 55 0 l 133 350 q 136 367 138 380 q 140 394 140 401 q 140 418 133 428 q 126 439 115 439 q 91 439 67 418 q 42 397 13 350 l -10 366 q 25 427 67 457 q 109 487 158 487 q 196 487 215 469 q 235 451 235 417 q 235 403 232 383 q 229 363 222 334 q 257 410 297 448 q 336 487 379 487 q 411 487 429 466 q 448 446 448 412 q 448 383 434 367 q 419 350 395 350 q 374 350 360 363 q 347 375 347 396 q 347 398 348 406 q 348 413 348 418 q 348 426 345 432 q 342 439 338 439 q 310 439 268 367 q 227 296 206 199 z"},"2":{"x_min":0,"x_max":581,"ha":581,"o":"m 488 181 l 516 174 q 493 59 468 25 q 443 -9 391 -9 q 334 -9 246 6 q 158 21 129 21 q 107 21 83 14 q 60 7 27 -8 l 6 27 q 79 117 206 222 l 216 230 q 326 320 364 379 q 402 439 402 505 q 402 575 363 617 q 324 658 258 658 q 193 658 149 620 q 105 581 105 527 q 105 519 106 511 q 107 502 109 494 q 148 493 171 475 q 194 456 194 426 q 194 404 180 390 q 167 376 145 376 q 109 376 84 413 q 59 451 59 506 q 59 596 123 652 q 187 709 289 709 q 391 709 452 651 q 513 594 513 498 q 513 432 483 376 q 452 320 391 276 q 377 266 262 198 q 147 129 78 54 q 125 80 159 92 q 193 104 221 104 q 246 104 304 95 q 363 86 397 86 q 429 86 450 107 q 471 128 488 181 z"},"{":{"x_min":0,"x_max":500,"ha":500,"o":"m 415 712 q 353 711 329 686 q 306 660 306 583 l 306 516 q 306 406 279 366 q 251 326 177 310 q 251 294 279 254 q 306 214 306 104 l 306 37 q 306 -40 329 -65 q 352 -90 415 -91 l 415 -119 l 410 -119 q 302 -119 261 -83 q 220 -47 220 50 l 220 148 q 220 227 192 257 q 164 288 87 294 l 87 327 q 165 334 192 364 q 220 394 220 473 l 220 571 q 220 668 261 704 q 303 740 415 740 z"},"9":{"x_min":0,"x_max":581,"ha":581,"o":"m 420 412 q 423 434 424 453 q 426 472 426 490 q 426 575 397 622 q 368 669 315 669 q 253 669 210 603 q 167 537 167 436 q 167 375 196 339 q 225 302 273 302 q 313 302 350 330 q 387 357 420 412 z m 409 334 q 375 289 329 265 q 283 241 231 241 q 155 241 108 293 q 61 344 61 427 q 61 542 135 625 q 210 707 313 707 q 413 707 471 634 q 529 561 529 433 q 529 346 504 264 q 479 182 434 122 q 387 59 326 25 q 265 -9 200 -9 q 127 -9 81 30 q 34 68 34 127 q 34 161 49 182 q 63 203 86 203 q 104 203 114 191 q 125 180 125 160 q 125 139 115 122 q 106 104 88 92 q 108 61 135 45 q 163 30 198 30 q 278 30 332 107 q 385 185 409 334 z"}," ":{"x_min":0,"x_max":291,"ha":291,"o":""},"I":{"x_min":0,"x_max":370,"ha":370,"o":"m 368 718 l 368 679 q 326 678 309 666 q 293 654 286 612 l 207 128 q 207 125 206 121 q 201 86 201 73 q 201 56 216 48 q 231 40 271 38 l 271 0 q 216 3 186 4 q 156 5 137 5 q 120 5 91 4 q 63 3 3 0 l 3 38 q 45 39 61 51 q 77 62 84 105 l 164 589 q 167 608 168 623 q 170 637 170 644 q 170 662 156 670 q 142 677 102 679 l 102 718 q 148 715 180 714 q 212 713 235 713 q 258 713 290 714 q 321 715 368 718 z"},"H":{"x_min":0,"x_max":801,"ha":801,"o":"m 207 128 q 204 109 202 94 q 200 80 200 75 q 200 57 213 49 q 227 41 266 38 l 266 0 q 212 3 184 4 q 155 5 137 5 q 120 5 92 4 q 64 3 7 0 l 7 38 q 46 40 62 51 q 77 62 84 103 l 163 589 q 166 608 168 623 q 170 637 170 642 q 170 661 157 668 q 144 676 104 679 l 104 718 q 149 715 180 714 q 211 713 235 713 q 258 713 291 714 q 324 715 373 718 l 373 679 q 324 677 309 665 q 293 653 286 612 l 250 393 l 564 393 l 596 589 q 599 606 601 620 q 602 634 602 642 q 602 661 589 669 q 577 676 537 679 l 537 718 q 584 715 615 714 q 645 713 665 713 q 687 713 717 714 q 747 715 796 718 l 796 679 q 757 678 741 666 q 726 655 719 614 l 639 128 q 636 107 634 93 q 632 79 632 75 q 632 56 645 48 q 658 41 698 38 l 698 0 q 643 3 614 4 q 586 5 568 5 q 549 5 519 4 q 489 3 430 0 l 430 38 q 479 41 495 52 q 510 63 517 105 l 558 353 l 244 353 z"},"4":{"x_min":0,"x_max":581,"ha":581,"o":"m 486 682 q 356 568 254 461 q 152 355 91 270 l 338 270 l 384 552 l 488 576 l 438 270 l 519 272 l 490 195 l 426 195 l 415 120 q 414 110 413 100 q 412 91 412 83 q 412 59 425 48 q 438 37 467 37 l 479 37 l 473 0 q 417 3 385 4 q 353 5 332 5 q 315 5 286 4 q 257 3 197 0 l 203 37 q 265 37 287 56 q 309 75 319 147 l 325 195 l 20 195 l 23 249 q 134 383 240 498 q 347 613 455 716 z"},"~":{"x_min":0,"x_max":833,"ha":833,"o":"m 747 293 q 697 258 651 241 q 604 224 561 224 q 540 224 516 228 q 492 232 468 241 q 456 245 431 254 q 327 290 275 290 q 235 290 190 271 q 145 253 87 212 l 87 303 q 139 338 186 356 q 232 373 276 373 q 306 373 337 367 q 368 361 419 344 q 426 342 440 336 q 520 308 562 308 q 604 308 648 326 q 693 344 747 383 z"},"D":{"x_min":0,"x_max":742,"ha":742,"o":"m 193 41 q 204 41 214 40 q 224 40 233 40 l 259 40 q 341 40 385 53 q 428 65 461 96 q 512 143 541 232 q 571 322 571 431 q 571 561 522 619 q 473 678 366 678 q 360 678 336 677 q 313 677 297 677 z m 7 0 l 7 40 q 46 40 62 51 q 77 62 84 103 l 164 589 q 167 609 168 623 q 170 636 170 643 q 170 662 156 669 q 142 677 104 678 l 104 718 q 137 717 170 717 q 203 717 256 717 l 336 717 q 431 717 481 707 q 532 698 569 676 q 637 636 672 568 q 706 500 706 408 q 706 310 670 224 q 635 138 572 84 q 521 40 456 20 q 391 0 297 0 q 283 0 239 0 q 194 1 164 1 q 126 1 87 1 q 49 0 7 0 z"},"^":{"x_min":0,"x_max":1000,"ha":1000,"o":"m 552 714 l 797 438 l 746 438 l 499 632 l 252 438 l 201 438 l 447 714 z"},"0":{"x_min":0,"x_max":581,"ha":581,"o":"m 434 472 q 434 572 409 621 q 383 670 332 670 q 254 670 201 545 q 148 421 148 230 q 148 130 174 80 q 201 29 253 29 q 292 29 325 61 q 357 93 381 156 q 407 224 420 305 q 434 386 434 472 z m 334 708 q 433 708 490 636 q 548 563 548 438 q 548 245 461 118 q 375 -9 247 -9 q 150 -9 92 66 q 34 141 34 268 q 34 460 120 584 q 206 708 334 708 z"},"F":{"x_min":0,"x_max":606,"ha":606,"o":"m 594 718 l 591 519 l 555 519 l 555 541 q 555 622 529 650 q 503 678 425 678 l 297 678 l 249 385 l 292 385 q 374 385 400 406 q 426 427 435 486 l 469 486 q 457 425 447 359 q 438 293 430 224 l 397 224 q 397 226 397 229 q 401 263 401 279 q 401 319 385 332 q 369 345 313 345 l 243 345 l 207 128 q 204 108 202 93 q 200 79 200 74 q 200 54 218 46 q 236 38 288 38 l 288 0 q 231 3 196 4 q 160 5 134 5 q 122 5 98 4 q 74 3 5 0 l 5 38 q 45 39 61 50 q 77 62 84 103 l 164 589 q 167 609 168 623 q 170 636 170 643 q 170 662 156 669 q 142 677 104 678 l 104 718 z"},"`":{"x_min":0,"x_max":500,"ha":500,"o":"m 388 544 l 343 544 l 212 637 q 195 649 188 660 q 180 670 180 682 q 180 699 192 712 q 204 724 220 724 q 233 724 245 717 q 257 710 268 696 z"},"k":{"x_min":0,"x_max":576,"ha":576,"o":"m 180 270 q 237 380 295 435 q 354 490 415 490 q 449 490 470 469 q 492 447 492 414 q 492 360 436 310 q 379 260 285 232 q 335 228 358 211 q 380 195 390 155 q 394 140 397 114 q 407 51 442 51 q 463 51 482 72 q 501 93 523 140 l 546 128 q 515 56 479 23 q 442 -10 394 -10 q 346 -10 324 18 q 302 46 294 129 q 293 136 292 149 q 288 212 244 217 l 247 247 q 324 266 364 302 q 403 339 403 393 q 403 413 393 424 q 384 434 365 434 q 345 434 322 418 q 299 401 275 370 q 230 312 195 242 q 159 171 153 141 l 125 0 l 21 0 l 146 612 q 150 635 151 646 q 153 658 153 667 q 153 701 93 705 q 88 705 86 705 l 90 738 q 95 738 105 737 q 148 736 165 736 q 182 736 205 737 q 228 739 277 743 z"},"u":{"x_min":0,"x_max":624,"ha":624,"o":"m 184 157 q 172 120 168 104 q 165 89 165 79 q 165 61 173 52 q 181 44 198 44 q 242 44 301 117 q 361 191 380 278 l 424 477 l 530 477 l 453 128 q 449 107 447 95 q 445 82 445 76 q 445 61 452 52 q 458 44 470 44 q 496 44 520 63 q 543 82 572 127 l 596 112 q 562 51 519 21 q 477 -9 427 -9 q 388 -9 368 10 q 348 28 348 64 q 348 80 351 102 q 354 124 361 150 q 303 63 255 27 q 208 -9 152 -9 q 109 -9 84 15 q 59 40 59 81 q 59 99 64 122 q 69 145 83 184 l 140 354 q 146 372 148 385 q 151 397 151 406 q 151 419 144 427 q 137 435 125 435 q 105 435 81 410 q 56 385 32 341 l 5 355 q 42 423 81 455 q 121 487 169 487 q 210 487 235 466 q 259 444 259 407 q 259 393 256 376 q 253 360 248 345 z"},"]":{"x_min":0,"x_max":348,"ha":348,"o":"m 284 734 l 126 -186 q 107 -180 89 -177 q 70 -174 52 -174 q 30 -174 5 -177 q -20 -180 -53 -186 l -47 -153 q -26 -146 -5 -143 q 17 -140 40 -140 l 59 -140 l 202 688 l 195 688 q 176 688 154 691 q 132 694 105 701 l 111 737 q 134 729 159 726 q 183 722 209 722 q 230 722 248 725 q 266 728 284 734 z"},"U":{"x_min":0,"x_max":763,"ha":763,"o":"m 372 718 l 372 679 q 324 677 308 666 q 293 655 286 612 l 232 291 l 230 279 q 217 200 217 171 q 217 107 256 73 q 296 39 370 39 q 427 39 469 61 q 511 83 537 126 q 568 177 591 322 q 593 336 594 344 l 632 589 q 635 608 636 622 q 638 636 638 643 q 638 662 623 669 q 607 677 560 679 l 560 718 q 597 715 624 714 q 651 713 673 713 q 685 713 705 714 q 726 715 763 718 l 763 679 q 720 678 704 666 q 688 654 681 612 l 626 272 q 602 123 532 57 q 463 -9 331 -9 q 218 -9 157 38 q 97 85 97 173 q 97 211 113 305 l 114 309 l 163 589 q 166 605 168 621 q 170 637 170 644 q 170 662 156 669 q 142 677 104 679 l 104 718 q 149 715 180 714 q 211 713 235 713 q 257 713 290 714 q 322 715 372 718 z"},"o":{"x_min":0,"x_max":525,"ha":525,"o":"m 298 490 q 377 490 427 435 q 476 379 476 289 q 476 166 396 79 q 316 -9 204 -9 q 118 -9 68 45 q 19 100 19 195 q 19 316 100 403 q 182 490 298 490 z m 367 353 q 367 403 348 429 q 329 456 294 456 q 264 456 237 437 q 211 417 190 379 q 163 328 146 259 q 129 189 129 126 q 129 76 148 51 q 168 25 206 25 q 236 25 265 50 q 293 75 314 120 q 338 172 353 236 q 367 300 367 353 z"},"N":{"x_min":0,"x_max":763,"ha":763,"o":"m 253 718 l 576 165 l 642 558 q 646 579 648 595 q 650 612 650 620 q 650 653 634 666 q 618 678 574 679 l 574 718 q 614 715 637 714 q 661 713 675 713 q 688 713 708 714 q 729 715 772 718 l 772 679 q 732 679 715 661 q 699 643 688 577 l 590 6 l 538 -5 l 200 578 l 130 159 q 126 134 124 120 q 122 105 122 97 q 122 64 139 52 q 155 39 199 38 l 199 0 q 160 3 136 4 q 112 5 94 5 q 82 5 62 4 q 42 3 0 0 l 0 38 q 39 38 56 57 q 73 76 84 141 l 162 594 q 164 604 164 611 q 165 619 165 625 q 165 653 142 666 q 120 679 69 679 l 69 718 q 104 715 125 714 q 146 713 160 713 q 176 713 198 714 q 220 715 253 718 z"},"+":{"x_min":0,"x_max":833,"ha":833,"o":"m 458 596 l 458 339 l 709 339 l 709 258 l 458 258 l 458 0 l 375 0 l 375 258 l 124 258 l 124 339 l 375 339 l 375 596 z"},"G":{"x_min":0,"x_max":728,"ha":728,"o":"m 652 673 l 684 672 q 672 608 663 551 q 654 494 646 439 l 613 439 q 614 446 614 453 q 614 459 614 473 q 614 571 569 626 q 523 682 444 682 q 317 682 242 572 q 167 461 167 273 q 167 157 215 94 q 263 31 351 31 q 385 31 417 42 q 450 52 483 75 l 498 173 q 500 183 500 190 q 501 197 501 202 q 501 225 486 233 q 471 241 416 241 l 416 279 q 469 276 500 275 q 531 274 551 274 q 576 274 609 275 q 643 276 692 279 l 692 241 q 646 238 632 226 q 617 214 609 162 l 583 0 l 551 0 l 547 51 q 497 21 444 6 q 391 -9 334 -9 q 190 -9 111 72 q 32 152 32 297 q 32 385 60 463 q 87 541 139 600 q 192 660 263 694 q 334 727 411 727 q 485 727 540 704 q 594 681 635 633 z"},"q":{"x_min":0,"x_max":530,"ha":530,"o":"m 329 225 l 360 372 q 356 406 337 427 q 318 448 291 448 q 265 448 239 427 q 213 407 190 368 q 164 322 146 260 q 128 197 128 153 q 128 112 143 89 q 158 67 185 67 q 203 67 222 78 q 240 89 261 112 q 286 140 306 174 q 325 208 329 225 z m 460 487 l 491 487 l 362 -111 q 360 -120 359 -128 q 358 -136 358 -144 q 358 -165 368 -175 q 379 -185 404 -187 l 398 -220 q 385 -219 361 -218 q 305 -216 288 -216 q 251 -216 168 -220 q 160 -220 156 -220 l 163 -187 q 211 -185 228 -173 q 244 -161 252 -125 l 308 129 q 267 65 225 35 q 183 5 135 5 q 80 5 48 45 q 17 84 17 155 q 17 212 37 272 q 57 333 92 381 q 129 432 176 459 q 222 487 271 487 q 312 487 342 469 q 371 451 388 414 q 411 429 429 448 q 447 466 460 487 z"},"d":{"x_min":0,"x_max":581,"ha":581,"o":"m 331 212 l 363 352 q 358 389 340 409 q 322 429 294 429 q 264 429 235 404 q 206 379 183 333 q 158 283 144 229 q 129 174 129 132 q 129 93 144 72 q 158 51 185 51 q 204 51 222 61 q 240 72 261 94 q 287 122 306 155 q 325 188 331 212 z m 417 125 q 415 117 414 109 q 413 101 413 92 q 413 72 421 61 q 429 51 445 51 q 465 51 485 71 q 504 91 528 135 l 553 123 q 521 55 481 23 q 442 -9 390 -9 q 353 -9 333 12 q 313 33 313 72 q 313 83 315 96 q 317 110 323 131 q 278 60 232 25 q 187 -9 135 -9 q 78 -9 46 30 q 14 68 14 136 q 14 195 34 254 q 55 313 92 363 q 131 416 179 444 q 227 473 274 473 q 312 473 336 458 q 361 444 376 413 l 421 612 q 425 628 427 643 q 429 658 429 668 q 429 703 357 705 q 353 705 350 705 l 356 738 q 363 738 378 737 q 421 736 437 736 q 458 736 486 738 q 514 739 555 743 z"},"1":{"x_min":0,"x_max":390,"ha":390,"o":"m 220 155 q 216 130 214 114 q 212 97 212 87 q 212 59 226 48 q 241 37 280 37 l 295 37 l 289 0 q 229 3 195 4 q 160 5 137 5 q 117 5 84 4 q 52 3 -9 0 l -3 37 l 3 37 q 96 37 119 164 l 119 164 l 182 526 q 185 542 187 557 q 188 572 188 584 q 188 602 182 609 q 175 616 161 616 q 157 616 148 615 q 139 613 129 611 l 65 594 l 57 625 q 121 640 187 660 q 252 680 319 705 z"},"5":{"x_min":0,"x_max":581,"ha":581,"o":"m 527 682 q 487 622 457 601 q 427 581 383 581 q 354 581 304 588 q 254 595 190 608 l 149 387 q 183 410 220 421 q 258 433 299 433 q 389 433 444 380 q 499 328 499 242 q 499 135 425 65 q 350 -6 237 -6 q 150 -6 94 38 q 39 82 39 150 q 39 181 54 200 q 68 220 91 220 q 111 220 123 207 q 135 193 135 172 q 135 150 125 132 q 116 114 95 97 q 106 68 137 52 q 167 35 208 35 q 286 35 337 94 q 387 152 387 243 q 387 310 352 349 q 316 388 257 388 q 229 388 200 377 q 170 366 137 343 l 103 366 l 163 709 q 257 690 332 679 q 406 668 439 668 q 460 668 474 675 q 487 682 505 701 z"}}}
